<svg width="286" height="272" viewBox="0 0 286 272" fill="none" xmlns="http://www.w3.org/2000/svg">
<path fill-rule="evenodd" clip-rule="evenodd" d="M241 2.5C241 1.11929 242.119 3.8147e-06 243.5 3.8147e-06H263.5C275.926 3.8147e-06 286 10.0736 286 22.5V42.5C286 43.8807 284.881 45 283.5 45C282.119 45 281 43.8807 281 42.5V22.5C281 12.835 273.165 5 263.5 5H243.5C242.119 5 241 3.88072 241 2.5Z" fill="#FEFEFE"/>
<path fill-rule="evenodd" clip-rule="evenodd" d="M2.5 45C1.11929 45 -4.89256e-08 43.8807 -1.09278e-07 42.5L-9.83506e-07 22.5C-1.52668e-06 10.0736 10.0736 3.37437e-06 22.5 2.83119e-06L42.5 1.95696e-06C43.8807 1.89661e-06 45 1.11929 45 2.5C45 3.88072 43.8807 5 42.5 5L22.5 5C12.835 5 5 12.835 5 22.5L5 42.5C5 43.8807 3.88071 45 2.5 45Z" fill="#FEFEFE"/>
<path fill-rule="evenodd" clip-rule="evenodd" d="M283.5 227C284.881 227 286 228.119 286 229.5L286 249.5C286 261.926 275.926 272 263.5 272L243.5 272C242.119 272 241 270.881 241 269.5C241 268.119 242.119 267 243.5 267L263.5 267C273.165 267 281 259.165 281 249.5L281 229.5C281 228.119 282.119 227 283.5 227Z" fill="#FEFEFE"/>
<path fill-rule="evenodd" clip-rule="evenodd" d="M45 269.5C45 270.881 43.8807 272 42.5 272L22.5 272C10.0736 272 8.80661e-07 261.926 1.96701e-06 249.5L3.71547e-06 229.5C3.83617e-06 228.119 1.11929 227 2.5 227C3.88072 227 5 228.119 5 229.5L5 249.5C5 259.165 12.835 267 22.5 267L42.5 267C43.8807 267 45 268.119 45 269.5Z" fill="#FEFEFE"/>
</svg>
